<mxfile host="app.diagrams.net" modified="2023-12-11T03:35:38.176Z" agent="Mozilla/5.0 (Windows NT 10.0; Win64; x64) AppleWebKit/537.36 (KHTML, like Gecko) Chrome/120.0.0.0 Safari/537.36" etag="Zm-KTq9f-P3s1CHoXXXD" version="22.1.7" type="device">
  <diagram name="Página-1" id="aTf4G8Le42lvdKUkvCgz">
    <mxGraphModel dx="874" dy="488" grid="1" gridSize="10" guides="1" tooltips="1" connect="1" arrows="1" fold="1" page="1" pageScale="1" pageWidth="1169" pageHeight="827" background="#575757" math="0" shadow="1">
      <root>
        <mxCell id="0" />
        <mxCell id="1" parent="0" />
        <mxCell id="jM08fEE16DVDO9m3BxCJ-63" value="" style="rounded=0;whiteSpace=wrap;html=1;fontSize=16;fillColor=none;strokeColor=#FFFFFF;strokeWidth=2;" vertex="1" parent="1">
          <mxGeometry x="410" y="30" width="410" height="360" as="geometry" />
        </mxCell>
        <mxCell id="jM08fEE16DVDO9m3BxCJ-1" value="Administrador" style="shape=umlActor;verticalLabelPosition=bottom;verticalAlign=top;html=1;labelBackgroundColor=none;fillColor=#BC6C25;strokeColor=#DDA15E;fontColor=#FEFAE0;rounded=0;" vertex="1" parent="1">
          <mxGeometry x="70" y="10" width="30" height="60" as="geometry" />
        </mxCell>
        <mxCell id="jM08fEE16DVDO9m3BxCJ-2" value="Login" style="ellipse;whiteSpace=wrap;html=1;labelBackgroundColor=none;fillColor=#BC6C25;strokeColor=#DDA15E;fontColor=#FEFAE0;rounded=0;" vertex="1" parent="1">
          <mxGeometry x="200" y="65" width="105" height="50" as="geometry" />
        </mxCell>
        <mxCell id="jM08fEE16DVDO9m3BxCJ-9" style="edgeStyle=none;curved=1;orthogonalLoop=1;jettySize=auto;html=1;entryX=0;entryY=0.5;entryDx=0;entryDy=0;fontSize=12;startSize=8;endSize=8;" edge="1" parent="1" source="jM08fEE16DVDO9m3BxCJ-3" target="jM08fEE16DVDO9m3BxCJ-2">
          <mxGeometry relative="1" as="geometry" />
        </mxCell>
        <mxCell id="jM08fEE16DVDO9m3BxCJ-3" value="Usuario" style="shape=umlActor;verticalLabelPosition=bottom;verticalAlign=top;html=1;labelBackgroundColor=none;fillColor=#BC6C25;strokeColor=#DDA15E;fontColor=#FEFAE0;rounded=0;" vertex="1" parent="1">
          <mxGeometry x="140" y="100" width="30" height="60" as="geometry" />
        </mxCell>
        <mxCell id="jM08fEE16DVDO9m3BxCJ-11" style="edgeStyle=none;curved=1;orthogonalLoop=1;jettySize=auto;html=1;fontSize=12;startSize=8;endSize=8;" edge="1" parent="1" source="jM08fEE16DVDO9m3BxCJ-4" target="jM08fEE16DVDO9m3BxCJ-3">
          <mxGeometry relative="1" as="geometry" />
        </mxCell>
        <mxCell id="jM08fEE16DVDO9m3BxCJ-4" value="Asistente&lt;br&gt;Social" style="shape=umlActor;verticalLabelPosition=bottom;verticalAlign=top;html=1;labelBackgroundColor=none;fillColor=#BC6C25;strokeColor=#DDA15E;fontColor=#FEFAE0;rounded=0;" vertex="1" parent="1">
          <mxGeometry x="30" y="100" width="30" height="60" as="geometry" />
        </mxCell>
        <mxCell id="jM08fEE16DVDO9m3BxCJ-12" style="edgeStyle=none;curved=1;orthogonalLoop=1;jettySize=auto;html=1;fontSize=12;startSize=8;endSize=8;" edge="1" parent="1" source="jM08fEE16DVDO9m3BxCJ-7" target="jM08fEE16DVDO9m3BxCJ-3">
          <mxGeometry relative="1" as="geometry" />
        </mxCell>
        <mxCell id="jM08fEE16DVDO9m3BxCJ-7" value="Usuario&lt;br style=&quot;border-color: var(--border-color);&quot;&gt;Común" style="shape=umlActor;verticalLabelPosition=bottom;verticalAlign=top;html=1;labelBackgroundColor=none;fillColor=#BC6C25;strokeColor=#DDA15E;fontColor=#FEFAE0;rounded=0;" vertex="1" parent="1">
          <mxGeometry x="80" y="200" width="30" height="60" as="geometry" />
        </mxCell>
        <mxCell id="jM08fEE16DVDO9m3BxCJ-10" style="edgeStyle=none;curved=1;orthogonalLoop=1;jettySize=auto;html=1;entryX=0.25;entryY=0.1;entryDx=0;entryDy=0;entryPerimeter=0;fontSize=12;startSize=8;endSize=8;" edge="1" parent="1" source="jM08fEE16DVDO9m3BxCJ-1" target="jM08fEE16DVDO9m3BxCJ-3">
          <mxGeometry relative="1" as="geometry" />
        </mxCell>
        <mxCell id="jM08fEE16DVDO9m3BxCJ-26" style="edgeStyle=none;curved=1;orthogonalLoop=1;jettySize=auto;html=1;entryX=0.024;entryY=0.3;entryDx=0;entryDy=0;fontSize=12;startSize=8;endSize=8;entryPerimeter=0;" edge="1" parent="1" source="jM08fEE16DVDO9m3BxCJ-19" target="jM08fEE16DVDO9m3BxCJ-23">
          <mxGeometry relative="1" as="geometry" />
        </mxCell>
        <mxCell id="jM08fEE16DVDO9m3BxCJ-29" style="edgeStyle=none;curved=1;orthogonalLoop=1;jettySize=auto;html=1;fontSize=12;startSize=8;endSize=8;" edge="1" parent="1" source="jM08fEE16DVDO9m3BxCJ-19" target="jM08fEE16DVDO9m3BxCJ-28">
          <mxGeometry relative="1" as="geometry" />
        </mxCell>
        <mxCell id="jM08fEE16DVDO9m3BxCJ-36" style="edgeStyle=none;curved=1;orthogonalLoop=1;jettySize=auto;html=1;fontSize=12;startSize=8;endSize=8;entryX=0;entryY=0;entryDx=0;entryDy=0;" edge="1" parent="1" source="jM08fEE16DVDO9m3BxCJ-19" target="jM08fEE16DVDO9m3BxCJ-37">
          <mxGeometry relative="1" as="geometry">
            <mxPoint x="490" y="240" as="targetPoint" />
          </mxGeometry>
        </mxCell>
        <mxCell id="jM08fEE16DVDO9m3BxCJ-39" value="" style="edgeStyle=none;curved=1;orthogonalLoop=1;jettySize=auto;html=1;fontSize=12;startSize=8;endSize=8;entryX=0.324;entryY=0;entryDx=0;entryDy=0;entryPerimeter=0;" edge="1" parent="1" source="jM08fEE16DVDO9m3BxCJ-19" target="jM08fEE16DVDO9m3BxCJ-38">
          <mxGeometry relative="1" as="geometry">
            <mxPoint x="435.87915139591905" y="270.01191735375323" as="targetPoint" />
          </mxGeometry>
        </mxCell>
        <mxCell id="jM08fEE16DVDO9m3BxCJ-19" value="Administrador" style="shape=umlActor;verticalLabelPosition=bottom;verticalAlign=top;html=1;labelBackgroundColor=none;fillColor=#BC6C25;strokeColor=#DDA15E;fontColor=#FEFAE0;rounded=0;" vertex="1" parent="1">
          <mxGeometry x="350" y="70" width="30" height="60" as="geometry" />
        </mxCell>
        <mxCell id="jM08fEE16DVDO9m3BxCJ-31" style="edgeStyle=none;curved=1;orthogonalLoop=1;jettySize=auto;html=1;fontSize=12;startSize=8;endSize=8;" edge="1" parent="1" source="jM08fEE16DVDO9m3BxCJ-19" target="jM08fEE16DVDO9m3BxCJ-30">
          <mxGeometry relative="1" as="geometry">
            <mxPoint x="480" y="110" as="sourcePoint" />
          </mxGeometry>
        </mxCell>
        <mxCell id="jM08fEE16DVDO9m3BxCJ-20" value="Asistente&lt;br&gt;Social" style="shape=umlActor;verticalLabelPosition=bottom;verticalAlign=top;html=1;labelBackgroundColor=none;fillColor=#BC6C25;strokeColor=#DDA15E;fontColor=#FEFAE0;rounded=0;" vertex="1" parent="1">
          <mxGeometry x="615" y="414" width="30" height="60" as="geometry" />
        </mxCell>
        <mxCell id="jM08fEE16DVDO9m3BxCJ-33" style="edgeStyle=none;curved=1;orthogonalLoop=1;jettySize=auto;html=1;entryX=1;entryY=0.5;entryDx=0;entryDy=0;fontSize=12;startSize=8;endSize=8;" edge="1" parent="1" source="jM08fEE16DVDO9m3BxCJ-21" target="jM08fEE16DVDO9m3BxCJ-32">
          <mxGeometry relative="1" as="geometry" />
        </mxCell>
        <mxCell id="jM08fEE16DVDO9m3BxCJ-66" style="edgeStyle=none;curved=1;orthogonalLoop=1;jettySize=auto;html=1;fontSize=12;startSize=8;endSize=8;" edge="1" parent="1" source="jM08fEE16DVDO9m3BxCJ-21" target="jM08fEE16DVDO9m3BxCJ-65">
          <mxGeometry relative="1" as="geometry" />
        </mxCell>
        <mxCell id="jM08fEE16DVDO9m3BxCJ-21" value="Usuario&lt;br style=&quot;border-color: var(--border-color);&quot;&gt;Común" style="shape=umlActor;verticalLabelPosition=bottom;verticalAlign=top;html=1;labelBackgroundColor=none;fillColor=#BC6C25;strokeColor=#DDA15E;fontColor=#FEFAE0;rounded=0;" vertex="1" parent="1">
          <mxGeometry x="850" y="60" width="30" height="60" as="geometry" />
        </mxCell>
        <mxCell id="jM08fEE16DVDO9m3BxCJ-23" value="Crear cuenta de usuario" style="ellipse;whiteSpace=wrap;html=1;labelBackgroundColor=none;fillColor=#BC6C25;strokeColor=#DDA15E;fontColor=#FEFAE0;rounded=0;" vertex="1" parent="1">
          <mxGeometry x="577.5" y="35" width="105" height="50" as="geometry" />
        </mxCell>
        <mxCell id="jM08fEE16DVDO9m3BxCJ-25" style="edgeStyle=none;curved=1;orthogonalLoop=1;jettySize=auto;html=1;entryX=0.976;entryY=0.4;entryDx=0;entryDy=0;entryPerimeter=0;fontSize=12;startSize=8;endSize=8;" edge="1" parent="1" source="jM08fEE16DVDO9m3BxCJ-21" target="jM08fEE16DVDO9m3BxCJ-23">
          <mxGeometry relative="1" as="geometry" />
        </mxCell>
        <mxCell id="jM08fEE16DVDO9m3BxCJ-28" value="Crear cuenta de admin." style="ellipse;whiteSpace=wrap;html=1;labelBackgroundColor=none;fillColor=#BC6C25;strokeColor=#DDA15E;fontColor=#FEFAE0;rounded=0;" vertex="1" parent="1">
          <mxGeometry x="450" y="80" width="105" height="50" as="geometry" />
        </mxCell>
        <mxCell id="jM08fEE16DVDO9m3BxCJ-30" value="Crear cuenta de asistente" style="ellipse;whiteSpace=wrap;html=1;labelBackgroundColor=none;fillColor=#BC6C25;strokeColor=#DDA15E;fontColor=#FEFAE0;rounded=0;" vertex="1" parent="1">
          <mxGeometry x="460" y="140" width="105" height="50" as="geometry" />
        </mxCell>
        <mxCell id="jM08fEE16DVDO9m3BxCJ-32" value="Solicitar asistencia&lt;br&gt;social" style="ellipse;whiteSpace=wrap;html=1;labelBackgroundColor=none;fillColor=#BC6C25;strokeColor=#DDA15E;fontColor=#FEFAE0;rounded=0;" vertex="1" parent="1">
          <mxGeometry x="670" y="80" width="105" height="50" as="geometry" />
        </mxCell>
        <mxCell id="jM08fEE16DVDO9m3BxCJ-37" value="Gestionar cuentas" style="ellipse;whiteSpace=wrap;html=1;labelBackgroundColor=none;fillColor=#BC6C25;strokeColor=#DDA15E;fontColor=#FEFAE0;rounded=0;" vertex="1" parent="1">
          <mxGeometry x="460" y="200" width="105" height="50" as="geometry" />
        </mxCell>
        <mxCell id="jM08fEE16DVDO9m3BxCJ-38" value="Asignar zona a&lt;br&gt;asistente social" style="ellipse;whiteSpace=wrap;html=1;labelBackgroundColor=none;fillColor=#BC6C25;strokeColor=#DDA15E;fontColor=#FEFAE0;rounded=0;" vertex="1" parent="1">
          <mxGeometry x="415" y="260" width="105" height="50" as="geometry" />
        </mxCell>
        <mxCell id="jM08fEE16DVDO9m3BxCJ-48" value="Revisar estado&lt;br&gt;solicitud" style="ellipse;whiteSpace=wrap;html=1;labelBackgroundColor=none;fillColor=#BC6C25;strokeColor=#DDA15E;fontColor=#FEFAE0;rounded=0;" vertex="1" parent="1">
          <mxGeometry x="660" y="180" width="105" height="50" as="geometry" />
        </mxCell>
        <mxCell id="jM08fEE16DVDO9m3BxCJ-49" style="edgeStyle=none;curved=1;orthogonalLoop=1;jettySize=auto;html=1;entryX=0.79;entryY=0.1;entryDx=0;entryDy=0;entryPerimeter=0;fontSize=12;startSize=8;endSize=8;" edge="1" parent="1" source="jM08fEE16DVDO9m3BxCJ-21" target="jM08fEE16DVDO9m3BxCJ-48">
          <mxGeometry relative="1" as="geometry" />
        </mxCell>
        <mxCell id="jM08fEE16DVDO9m3BxCJ-51" value="Gestionar historial de casos" style="ellipse;whiteSpace=wrap;html=1;labelBackgroundColor=none;fillColor=#BC6C25;strokeColor=#DDA15E;fontColor=#FEFAE0;rounded=0;" vertex="1" parent="1">
          <mxGeometry x="472.5" y="320" width="105" height="50" as="geometry" />
        </mxCell>
        <mxCell id="jM08fEE16DVDO9m3BxCJ-52" style="edgeStyle=none;curved=1;orthogonalLoop=1;jettySize=auto;html=1;fontSize=12;startSize=8;endSize=8;" edge="1" parent="1" source="jM08fEE16DVDO9m3BxCJ-20" target="jM08fEE16DVDO9m3BxCJ-51">
          <mxGeometry relative="1" as="geometry" />
        </mxCell>
        <mxCell id="jM08fEE16DVDO9m3BxCJ-53" value="Cambiar estado&lt;br&gt;solicitud" style="ellipse;whiteSpace=wrap;html=1;labelBackgroundColor=none;fillColor=#BC6C25;strokeColor=#DDA15E;fontColor=#FEFAE0;rounded=0;" vertex="1" parent="1">
          <mxGeometry x="535" y="250" width="105" height="50" as="geometry" />
        </mxCell>
        <mxCell id="jM08fEE16DVDO9m3BxCJ-54" style="edgeStyle=none;curved=1;orthogonalLoop=1;jettySize=auto;html=1;entryX=0.5;entryY=1;entryDx=0;entryDy=0;fontSize=12;startSize=8;endSize=8;" edge="1" parent="1" source="jM08fEE16DVDO9m3BxCJ-20" target="jM08fEE16DVDO9m3BxCJ-53">
          <mxGeometry relative="1" as="geometry" />
        </mxCell>
        <mxCell id="jM08fEE16DVDO9m3BxCJ-55" value="Crear y gestionar fichas sociales" style="ellipse;whiteSpace=wrap;html=1;labelBackgroundColor=none;fillColor=#BC6C25;strokeColor=#DDA15E;fontColor=#FEFAE0;rounded=0;" vertex="1" parent="1">
          <mxGeometry x="640" y="280" width="105" height="50" as="geometry" />
        </mxCell>
        <mxCell id="jM08fEE16DVDO9m3BxCJ-56" style="edgeStyle=none;curved=1;orthogonalLoop=1;jettySize=auto;html=1;entryX=0.21;entryY=1.02;entryDx=0;entryDy=0;entryPerimeter=0;fontSize=12;startSize=8;endSize=8;" edge="1" parent="1" source="jM08fEE16DVDO9m3BxCJ-20" target="jM08fEE16DVDO9m3BxCJ-55">
          <mxGeometry relative="1" as="geometry" />
        </mxCell>
        <mxCell id="jM08fEE16DVDO9m3BxCJ-57" value="Subir documentos" style="ellipse;whiteSpace=wrap;html=1;labelBackgroundColor=none;fillColor=#BC6C25;strokeColor=#DDA15E;fontColor=#FEFAE0;rounded=0;" vertex="1" parent="1">
          <mxGeometry x="610" y="130" width="105" height="50" as="geometry" />
        </mxCell>
        <mxCell id="jM08fEE16DVDO9m3BxCJ-58" value="Acceso a documentos" style="ellipse;whiteSpace=wrap;html=1;labelBackgroundColor=none;fillColor=#BC6C25;strokeColor=#DDA15E;fontColor=#FEFAE0;rounded=0;" vertex="1" parent="1">
          <mxGeometry x="200" y="140" width="105" height="50" as="geometry" />
        </mxCell>
        <mxCell id="jM08fEE16DVDO9m3BxCJ-59" style="edgeStyle=none;curved=1;orthogonalLoop=1;jettySize=auto;html=1;entryX=0.086;entryY=0.28;entryDx=0;entryDy=0;entryPerimeter=0;fontSize=12;startSize=8;endSize=8;" edge="1" parent="1" source="jM08fEE16DVDO9m3BxCJ-3" target="jM08fEE16DVDO9m3BxCJ-58">
          <mxGeometry relative="1" as="geometry" />
        </mxCell>
        <mxCell id="jM08fEE16DVDO9m3BxCJ-60" style="edgeStyle=none;curved=1;orthogonalLoop=1;jettySize=auto;html=1;fontSize=12;startSize=8;endSize=8;entryX=1;entryY=0.36;entryDx=0;entryDy=0;entryPerimeter=0;" edge="1" parent="1" source="jM08fEE16DVDO9m3BxCJ-21" target="jM08fEE16DVDO9m3BxCJ-57">
          <mxGeometry relative="1" as="geometry">
            <mxPoint x="722" y="151" as="targetPoint" />
          </mxGeometry>
        </mxCell>
        <mxCell id="jM08fEE16DVDO9m3BxCJ-61" value="Agendar fecha de visita" style="ellipse;whiteSpace=wrap;html=1;labelBackgroundColor=none;fillColor=#BC6C25;strokeColor=#DDA15E;fontColor=#FEFAE0;rounded=0;" vertex="1" parent="1">
          <mxGeometry x="700" y="330" width="105" height="50" as="geometry" />
        </mxCell>
        <mxCell id="jM08fEE16DVDO9m3BxCJ-62" style="edgeStyle=none;curved=1;orthogonalLoop=1;jettySize=auto;html=1;entryX=0.086;entryY=0.86;entryDx=0;entryDy=0;entryPerimeter=0;fontSize=12;startSize=8;endSize=8;" edge="1" parent="1" source="jM08fEE16DVDO9m3BxCJ-20" target="jM08fEE16DVDO9m3BxCJ-61">
          <mxGeometry relative="1" as="geometry" />
        </mxCell>
        <mxCell id="jM08fEE16DVDO9m3BxCJ-64" value="&lt;font color=&quot;#f0f0f0&quot;&gt;Sistema&lt;/font&gt;" style="text;html=1;align=center;verticalAlign=middle;resizable=0;points=[];autosize=1;strokeColor=none;fillColor=none;fontSize=16;" vertex="1" parent="1">
          <mxGeometry x="410" y="25" width="80" height="30" as="geometry" />
        </mxCell>
        <mxCell id="jM08fEE16DVDO9m3BxCJ-65" value="Revisar ficha social" style="ellipse;whiteSpace=wrap;html=1;labelBackgroundColor=none;fillColor=#BC6C25;strokeColor=#DDA15E;fontColor=#FEFAE0;rounded=0;" vertex="1" parent="1">
          <mxGeometry x="710" y="230" width="105" height="50" as="geometry" />
        </mxCell>
      </root>
    </mxGraphModel>
  </diagram>
</mxfile>
